<svg xmlns="http://www.w3.org/2000/svg" width="64" height="64" xmlns:v="https://vecta.io/nano">
  <path fill="#069" d="M58.667 10.667H5.333C2.388 10.667 0 13.054 0 16v32c0 2.946 2.388 5.333 5.333 5.333h53.333C61.612 53.333 64 50.946 64 48V16c0-2.946-2.388-5.333-5.333-5.333zm-19.556 8.444c0-.736.597-1.333 1.333-1.333h4.444c.736 0 1.333.597 1.333 1.333v4.444c0 .736-.597 1.333-1.333 1.333h-4.444c-.736 0-1.333-.597-1.333-1.333v-4.444zm11.111 9.333c.736 0 1.333.597 1.333 1.333v4.444c0 .736-.597 1.333-1.333 1.333h-4.444c-.736 0-1.333-.597-1.333-1.333v-4.444c0-.736.597-1.333 1.333-1.333h4.444zm-9.333 1.333v4.444c0 .736-.597 1.333-1.333 1.333h-4.444c-.736 0-1.333-.597-1.333-1.333v-4.444c0-.736.597-1.333 1.333-1.333h4.444c.736 0 1.333.597 1.333 1.333zM28.444 19.111c0-.736.597-1.333 1.333-1.333h4.444c.736 0 1.333.597 1.333 1.333v4.444c0 .736-.597 1.333-1.333 1.333h-4.444c-.736 0-1.333-.597-1.333-1.333v-4.444zm1.778 10.667v4.444c0 .736-.597 1.333-1.333 1.333h-4.444c-.736 0-1.333-.597-1.333-1.333v-4.444c0-.736.597-1.333 1.333-1.333h4.444c.736 0 1.333.597 1.333 1.333zM17.778 19.111c0-.736.597-1.333 1.333-1.333h4.444c.736 0 1.333.597 1.333 1.333v4.444c0 .736-.597 1.333-1.333 1.333h-4.444c-.736 0-1.333-.597-1.333-1.333v-4.444zm1.778 10.667v4.444c0 .736-.597 1.333-1.333 1.333h-4.444c-.736 0-1.333-.597-1.333-1.333v-4.444c0-.736.597-1.333 1.333-1.333h4.444c.736 0 1.333.597 1.333 1.333zM7.111 19.111c0-.736.597-1.333 1.333-1.333h4.444c.736 0 1.333.597 1.333 1.333v4.444c0 .736-.597 1.333-1.333 1.333H8.444c-.736 0-1.333-.597-1.333-1.333v-4.444zm7.111 25.778c0 .736-.597 1.333-1.333 1.333H8.444c-.736 0-1.333-.597-1.333-1.333v-4.444c0-.736.597-1.333 1.333-1.333h4.444c.736 0 1.333.597 1.333 1.333v4.444zm32 0c0 .736-.597 1.333-1.333 1.333H19.111c-.736 0-1.333-.597-1.333-1.333v-4.444c0-.736.597-1.333 1.333-1.333h25.778c.736 0 1.333.597 1.333 1.333v4.444zm10.667 0c0 .736-.597 1.333-1.333 1.333h-4.444c-.736 0-1.333-.597-1.333-1.333v-4.444c0-.736.597-1.333 1.333-1.333h4.444c.736 0 1.333.597 1.333 1.333v4.444zm0-21.333c0 .736-.597 1.333-1.333 1.333h-4.444c-.736 0-1.333-.597-1.333-1.333v-4.444c0-.736.597-1.333 1.333-1.333h4.444c.736 0 1.333.597 1.333 1.333v4.444z"/>
  <path fill="#eee" d="M46.222 44.889c0 .736-.597 1.333-1.333 1.333H19.111c-.736 0-1.333-.597-1.333-1.333v-4.444c0-.736.597-1.333 1.333-1.333h25.778c.736 0 1.333.597 1.333 1.333v4.444zm-28-16.444h-4.444c-.736 0-1.333.597-1.333 1.333v4.444c0 .736.597 1.333 1.333 1.333h4.444c.736 0 1.333-.597 1.333-1.333v-4.444c0-.736-.597-1.333-1.333-1.333h0zm10.667 0h-4.444c-.736 0-1.333.597-1.333 1.333v4.444c0 .736.597 1.333 1.333 1.333h4.444c.736 0 1.333-.597 1.333-1.333v-4.444c0-.736-.597-1.333-1.333-1.333h0zm10.667 0h-4.444c-.736 0-1.333.597-1.333 1.333v4.444c0 .736.597 1.333 1.333 1.333h4.444c.736 0 1.333-.597 1.333-1.333v-4.444c0-.736-.597-1.333-1.333-1.333h0zm12 5.778v-4.444c0-.736-.597-1.333-1.333-1.333h-4.444c-.736 0-1.333.597-1.333 1.333v4.444c0 .736.597 1.333 1.333 1.333h4.444c.736 0 1.333-.597 1.333-1.333h0zm4 4.889h-4.444c-.736 0-1.333.597-1.333 1.333v4.444c0 .736.597 1.333 1.333 1.333h4.444c.736 0 1.333-.597 1.333-1.333v-4.444c0-.736-.597-1.333-1.333-1.333h0zm0-21.333h-4.444c-.736 0-1.333.597-1.333 1.333v4.444c0 .736.597 1.333 1.333 1.333h4.444c.736 0 1.333-.597 1.333-1.333v-4.444c0-.736-.597-1.333-1.333-1.333h0zm-15.111 7.111h4.444c.736 0 1.333-.597 1.333-1.333v-4.444c0-.736-.597-1.333-1.333-1.333h-4.444c-.736 0-1.333.597-1.333 1.333v4.444c0 .736.597 1.333 1.333 1.333zm-10.667 0h4.444c.736 0 1.333-.597 1.333-1.333v-4.444c0-.736-.597-1.333-1.333-1.333h-4.444c-.736 0-1.333.597-1.333 1.333v4.444c0 .736.597 1.333 1.333 1.333zm-10.667 0h4.444c.736 0 1.333-.597 1.333-1.333v-4.444c0-.736-.597-1.333-1.333-1.333h-4.444c-.736 0-1.333.597-1.333 1.333v4.444c0 .736.597 1.333 1.333 1.333h0zm-10.667 0h4.444c.736 0 1.333-.597 1.333-1.333v-4.444c0-.736-.597-1.333-1.333-1.333H8.444c-.736 0-1.333.597-1.333 1.333v4.444c0 .736.597 1.333 1.333 1.333zm4.444 14.222H8.444c-.736 0-1.333.597-1.333 1.333v4.444c0 .736.597 1.333 1.333 1.333h4.444c.736 0 1.333-.597 1.333-1.333v-4.444c0-.736-.597-1.333-1.333-1.333z"/>
</svg>
